<?xml version="1.0" encoding="UTF-8"?>
<svg width="120px" height="120px" viewBox="0 0 120 120" version="1.1" xmlns="http://www.w3.org/2000/svg" xmlns:xlink="http://www.w3.org/1999/xlink">
    <!-- Generator: sketchtool 50.2 (55047) - http://www.bohemiancoding.com/sketch -->
    <title>25611536-67CD-4510-90A8-54784898DDA2</title>
    <desc>Created with sketchtool.</desc>
    <defs></defs>
    <g id="3.0-Insights" stroke="none" stroke-width="1" fill="none" fill-rule="evenodd">
        <g id="3.0.1-Empty-States" transform="translate(-302.000000, -365.000000)" fill="#BCBEC0">
            <g id="Group-3" transform="translate(120.000000, 120.000000)">
                <g id="Contacts-Collected" transform="translate(0.000000, 64.000000)">
                    <g id="Group-2" transform="translate(36.000000, 181.000000)">
                        <g id="Graphics-/-Illustrations-/-Empty-Chart" transform="translate(146.000000, 0.000000)">
                            <path d="M19.9698045,87.3896842 C18.5920602,87.3896842 17.4714586,86.2690827 17.4714586,84.8922406 C17.4714586,83.5163008 18.5920602,82.3956992 19.9698045,82.3956992 C21.3466466,82.3956992 22.4672481,83.5163008 22.4672481,84.8922406 C22.4672481,86.2690827 21.3466466,87.3896842 19.9698045,87.3896842 Z M43.4293534,52.2766015 C43.9174737,52.3776541 44.4227368,52.429985 44.9406316,52.429985 C46.2543158,52.429985 47.4876992,52.0880301 48.5622857,51.4916391 L62.6239398,62.9051729 C62.614015,62.9520902 62.5986767,62.9963008 62.5887519,63.043218 L36.528,63.043218 L43.4293534,52.2766015 Z M44.9406316,42.442015 C46.3174737,42.442015 47.4371729,43.5626165 47.4371729,44.9394586 C47.4371729,46.3153985 46.3174737,47.436 44.9406316,47.436 C43.561985,47.436 42.443188,46.3153985 42.443188,44.9394586 C42.443188,43.5626165 43.561985,42.442015 44.9406316,42.442015 Z M70.8985263,57.082015 L71.1168722,57.2308872 C70.7234887,57.1668271 70.3228872,57.1244211 69.9114586,57.1244211 C68.1935639,57.1244211 66.6146165,57.7108872 65.3496541,58.6871278 L51.8780752,47.7526917 C52.0016842,47.4486316 52.1009323,47.1337444 52.1848421,46.8116391 L77.9054436,46.8116391 L70.8985263,57.082015 Z M69.9114586,67.112391 C68.532812,67.112391 67.414015,65.9926917 67.414015,64.6158496 C67.414015,63.2390075 68.532812,62.118406 69.9114586,62.118406 C71.289203,62.118406 72.408,63.2390075 72.408,64.6158496 C72.408,65.9926917 71.289203,67.112391 69.9114586,67.112391 Z M94.8813835,22.4651729 C96.2600301,22.4651729 97.3788271,23.5857744 97.3788271,24.9626165 C97.3788271,26.3385564 96.2600301,27.4591579 94.8813835,27.4591579 C93.5045414,27.4591579 92.3848421,26.3385564 92.3848421,24.9626165 C92.3848421,23.5857744 93.5045414,22.4651729 94.8813835,22.4651729 Z M19.9698045,77.400812 C15.8383759,77.400812 12.4783759,80.7617143 12.4783759,84.8922406 C12.4783759,89.0236692 15.8383759,92.3836692 19.9698045,92.3836692 C23.4525113,92.3836692 26.3794286,89.9908872 27.214015,86.7653233 L107.366797,86.7653233 L107.366797,83.0200602 L27.214015,83.0200602 C26.9234887,81.8949474 26.3812331,80.8726917 25.6458947,80.0173534 L34.1261955,66.7884812 L62.7430376,66.7884812 C63.6768722,69.8624662 66.535218,72.1072782 69.9114586,72.1072782 C73.286797,72.1072782 76.1451429,69.8624662 77.0789774,66.7884812 L107.366797,66.7884812 L107.366797,63.043218 L77.2332632,63.043218 C76.9382256,61.6681805 76.2633383,60.4356992 75.326797,59.4540451 L83.9505564,46.8116391 L107.366797,46.8116391 L107.366797,43.0663759 L86.5057444,43.0663759 L93.8049925,32.3674286 C94.1577744,32.4179549 94.5150677,32.4540451 94.8813835,32.4540451 C98.3649925,32.4540451 101.29191,30.0612632 102.127398,26.834797 L107.366797,26.834797 L107.366797,23.0895338 L102.127398,23.0895338 C101.29191,19.8639699 98.3649925,17.471188 94.8813835,17.471188 C91.3986767,17.471188 88.4717594,19.8639699 87.6371729,23.0895338 L12.4783759,23.0895338 L12.4783759,26.834797 L87.6371729,26.834797 C87.9484511,28.038406 88.5502556,29.1229173 89.3649925,30.0134436 L80.4606316,43.0663759 L52.1848421,43.0663759 C51.3502556,39.840812 48.4233383,37.4480301 44.9406316,37.4480301 C41.4570226,37.4480301 38.5301053,39.840812 37.6955188,43.0663759 L12.4783759,43.0663759 L12.4783759,46.8116391 L37.6955188,46.8116391 C37.9725113,47.8817143 38.4723609,48.8633684 39.1553684,49.6925414 L30.5956692,63.043218 L12.4783759,63.043218 L12.4783759,66.7884812 L28.1947669,66.7884812 L21.3096541,77.5280301 C20.8738647,77.4486316 20.4272481,77.400812 19.9698045,77.400812 Z" id="Fill-1"></path>
                            <polygon id="Fill-3" points="4.97945865 114.865714 4.97945865 4.97729323 114.866075 4.97729323 114.866075 104.877744 9.98066165 104.877744 9.98066165 109.854586 119.845624 109.854586 119.845624 -0.00045112782 -9.02255639e-05 -0.00045112782 -9.02255639e-05 119.843459 119.85194 119.843459 119.85194 114.865714"></polygon>
                        </g>
                    </g>
                </g>
            </g>
        </g>
    </g>
</svg>