<?xml version="1.0" encoding="UTF-8"?>
<svg width="44px" height="32px" viewBox="0 0 44 32" version="1.1" xmlns="http://www.w3.org/2000/svg" xmlns:xlink="http://www.w3.org/1999/xlink">
    <!-- Generator: Sketch 49.1 (51147) - http://www.bohemiancoding.com/sketch -->
    <title>Shape</title>
    <desc>Created with Sketch.</desc>
    <defs></defs>
    <g id="Page-1" stroke="none" stroke-width="1" fill="none" fill-rule="evenodd" opacity="0.5">
        <g id="Connect-with-email-or-phone-number" transform="translate(-166.000000, -111.000000)" fill="#FFFFFF" fill-rule="nonzero">
            <g id="logo" transform="translate(166.000000, 111.000000)">
                <g id="wifi-connection-signal-symbol">
                    <path d="M22,24 C19.7919731,24 18,25.7919731 18,28 C18,30.2080269 19.7920447,32 22,32 C24.2079553,32 26,30.2080269 26,28 C26,25.7919731 24.2079553,24 22,24 Z M43.528872,9.78777362 C38.1553873,3.56666882 30.3080103,0 21.9999914,0 C13.6919725,0 5.8458896,3.56666882 0.471038849,9.78777362 C-0.242895017,10.6139666 -0.133036915,11.8467155 0.717500611,12.5412604 C1.09380775,12.8487656 1.55056725,13 2.00725485,13 C2.58048695,13 3.14976473,12.7627957 3.54749707,12.302797 C8.15492283,6.96916231 14.8812152,3.90942941 21.9999195,3.90942941 C29.1186238,3.90942941 35.8449161,6.96916231 40.45227,12.3015378 C40.8500742,12.7615366 41.4192801,12.9987409 41.9925841,12.9987409 C42.4493436,12.9987409 42.9073972,12.8488356 43.2837044,12.5400013 C44.1328759,11.8466456 44.2428059,10.6126375 43.528872,9.78777362 Z M21.999301,8 C16.0080062,8 10.3506619,10.4970688 6.47550007,14.8514265 C5.75483175,15.6612477 5.86566472,16.8695688 6.72431174,17.5503507 C7.10420679,17.8517625 7.56662777,18 8.02774227,18 C8.60643987,18 9.18114546,17.7674961 9.58136352,17.3166126 C12.6817833,13.830905 17.208733,11.8318923 21.9993736,11.8318923 C26.7900143,11.8318923 31.3168914,13.830905 34.4186902,17.3166126 C34.8202873,17.7687988 35.3949203,18 35.9722389,18 C36.4333534,18 36.8957744,17.8530652 37.275742,17.5503507 C38.1343164,16.8695688 38.2451494,15.6600136 37.5245537,14.8514265 C33.6479402,10.4971374 27.9905959,8 21.999301,8 Z M21.5000145,16 C18.0100149,16 14.7154575,17.6512638 12.4614274,20.5300185 C11.7620612,21.4225262 11.8696777,22.7542222 12.7028602,23.5045151 C13.0714889,23.8367023 13.5201961,24 13.9676356,24 C14.5291711,24 15.0868329,23.7438319 15.4751819,23.2469112 C16.9801223,21.3253485 19.1764,20.2230702 21.5000145,20.2230702 C23.823629,20.2230702 26.0199771,21.3253485 27.5248471,23.2469112 C27.9145343,23.7452677 28.4721257,24 29.0323934,24 C29.4798329,24 29.9285401,23.8381381 30.2971688,23.5045151 C31.1303514,22.7541467 31.2378974,21.4224506 30.5386016,20.5300185 C28.2845012,17.6512638 24.9899437,16 21.5000145,16 Z" id="Shape"></path>
                </g>
            </g>
        </g>
    </g>
</svg>